<?xml version="1.0" encoding="UTF-8"?>
<!DOCTYPE svg PUBLIC "-//W3C//DTD SVG 1.1//EN" "http://www.w3.org/Graphics/SVG/1.1/DTD/svg11.dtd">
<!-- Creator: CorelDRAW X7 -->
<svg xmlns="http://www.w3.org/2000/svg" xml:space="preserve" width="1044px" height="480px" version="1.1" style="shape-rendering:geometricPrecision; text-rendering:geometricPrecision; image-rendering:optimizeQuality; fill-rule:evenodd; clip-rule:evenodd"
viewBox="0 0 1044 480"
 xmlns:xlink="http://www.w3.org/1999/xlink">
 <defs>
  <style type="text/css">
   <![CDATA[
    .fil1 {fill:#D1DC05}
    .fil0 {fill:#18B3AB}
    .fil2 {fill:#222222}
   ]]>
  </style>
 </defs>
 <g id="Layer_x0020_1">
  <metadata id="CorelCorpID_0Corel-Layer"/>
  <g id="_2354414655104">
   <path class="fil0" d="M310 405l0 2c0,40 -33,73 -73,73l0 0c-40,0 -73,-33 -73,-73l0 -148 146 146zm-73 -405l0 0c40,0 73,33 73,73l0 2 -146 146 0 -148c0,-40 33,-73 73,-73zm-237 240l0 0c0,-40 33,-73 73,-73l76 0 0 146 -76 0c-40,0 -73,-33 -73,-73z"/>
   <path class="fil1" d="M310 96l0 136 -136 0 136 -136zm15 -15c28,-25 70,-24 97,2l0 0c27,27 27,71 0,98l-51 51 -46 0 0 -151zm46 166l51 51c27,27 27,72 0,99l0 0c-27,26 -69,27 -97,2l0 -152 46 0zm-61 0l0 137 -136 -137 136 0z"/>
   <g>
    <path class="fil2" d="M532 86l0 19 21 -23c1,-1 2,-1 2,-2 1,-1 2,-1 3,-1 1,0 3,1 4,2 0,1 1,2 1,3 0,2 -1,3 -2,5l-13 13 15 22c1,1 1,3 2,4 0,1 1,2 1,3 0,1 -1,2 -2,3 -1,1 -2,2 -3,2 -2,0 -3,-1 -4,-1 -1,-1 -2,-2 -2,-3 -1,-1 -1,-2 -2,-3l-12 -20 -9 9 0 11c0,2 0,4 -1,5 -1,1 -2,2 -4,2 -1,0 -2,-1 -2,-1 -1,-1 -2,-1 -2,-2 -1,-1 -1,-2 -1,-2 0,-1 0,-3 0,-4l0 -41c0,-2 1,-4 1,-5 1,-1 3,-2 4,-2 2,0 3,1 4,2 1,1 1,3 1,5zm76 3l-23 0 0 13 22 0c1,0 2,0 3,1 1,1 1,2 1,3 0,1 0,2 -1,3 -1,1 -2,1 -3,1l-22 0 0 16 24 0c2,0 3,0 4,1 1,1 1,2 1,3 0,2 0,3 -1,4 -1,0 -2,1 -4,1l-28 0c-2,0 -4,-1 -5,-2 -1,-1 -1,-3 -1,-5l0 -41c0,-2 0,-3 0,-4 1,-1 2,-2 3,-2 0,-1 2,-1 3,-1l27 0c2,0 3,1 4,1 1,1 1,2 1,3 0,2 0,3 -1,4 -1,0 -2,1 -4,1zm32 38l-8 -35 0 37c0,3 -1,4 -2,5 -1,1 -2,2 -3,2 -2,0 -3,-1 -4,-2 -1,-1 -1,-2 -1,-5l0 -43c0,-2 1,-4 2,-5 1,0 2,-1 4,-1l4 0c2,0 3,0 4,1 1,0 1,1 2,2 0,1 1,2 1,4l8 30 7 -30c1,-2 1,-3 1,-4 1,-1 2,-2 2,-2 1,-1 3,-1 5,-1l3 0c2,0 3,1 5,1 1,1 1,3 1,5l0 43c0,3 0,4 -1,5 -1,1 -2,2 -4,2 -1,0 -2,-1 -3,-2 -1,-1 -1,-2 -1,-5l0 -37 -8 35c-1,2 -1,3 -2,4 0,2 -1,3 -2,3 0,1 -2,2 -3,2 -2,0 -3,-1 -3,-1 -1,-1 -2,-1 -2,-2 -1,-1 -1,-2 -1,-3 -1,-1 -1,-2 -1,-3zm76 -38l-24 0 0 13 22 0c1,0 3,0 3,1 1,1 1,2 1,3 0,1 0,2 -1,3 0,1 -2,1 -3,1l-22 0 0 16 24 0c2,0 3,0 4,1 1,1 1,2 1,3 0,2 0,3 -1,4 -1,0 -2,1 -4,1l-28 0c-2,0 -4,-1 -5,-2 -1,-1 -1,-3 -1,-5l0 -41c0,-2 0,-3 1,-4 0,-1 1,-2 2,-2 1,-1 2,-1 3,-1l28 0c1,0 2,1 3,1 1,1 1,2 1,3 0,2 0,3 -1,4 -1,0 -2,1 -3,1zm27 -3l20 32 0 -32c0,-3 0,-4 1,-5 1,-1 2,-2 4,-2 1,0 2,1 3,2 1,1 1,2 1,5l0 42c0,5 -1,8 -5,8 -1,0 -2,0 -3,-1 0,0 -1,0 -2,-1 0,-1 -1,-1 -2,-2 0,-1 -1,-2 -1,-3l-20 -32 0 32c0,2 0,4 -1,5 -1,1 -2,2 -3,2 -2,0 -3,-1 -4,-2 -1,-1 -1,-3 -1,-5l0 -42c0,-2 0,-3 0,-4 1,-1 1,-2 2,-3 1,0 3,-1 4,-1 1,0 1,0 2,1 1,0 1,0 2,1 0,1 1,1 1,2 1,1 2,2 2,3zm74 3l-11 0 0 40c0,2 -1,4 -2,5 -1,1 -2,2 -3,2 -2,0 -3,-1 -4,-2 -1,-1 -2,-3 -2,-5l0 -40 -11 0c-2,0 -3,0 -4,-1 -1,-1 -1,-2 -1,-3 0,-2 0,-3 1,-4 1,0 2,-1 4,-1l33 0c2,0 3,1 4,1 1,1 1,2 1,4 0,1 0,2 -1,3 -1,1 -2,1 -4,1zm45 0l-23 0 0 13 21 0c2,0 3,0 4,1 1,1 1,2 1,3 0,1 0,2 -1,3 -1,1 -2,1 -4,1l-21 0 0 16 24 0c2,0 3,0 4,1 0,1 1,2 1,3 0,2 -1,3 -1,4 -1,0 -2,1 -4,1l-28 0c-2,0 -4,-1 -5,-2 -1,-1 -2,-3 -2,-5l0 -41c0,-2 1,-3 1,-4 1,-1 1,-2 2,-2 1,-1 2,-1 4,-1l27 0c2,0 3,1 4,1 1,1 1,2 1,3 0,2 0,3 -1,4 -1,0 -2,1 -4,1zm28 22l-4 0 0 18c0,2 0,4 -1,5 -1,1 -2,2 -4,2 -1,0 -3,-1 -4,-2 -1,-1 -1,-3 -1,-5l0 -42c0,-2 0,-4 1,-5 1,-1 3,-2 5,-2l17 0c2,0 4,0 6,0 2,1 3,1 5,2 1,0 3,1 4,3 1,1 2,3 3,4 0,2 1,4 1,6 0,4 -1,7 -4,10 -2,2 -5,4 -9,5 1,1 3,3 5,5 2,2 3,4 4,6 2,3 3,5 3,6 1,2 2,4 2,4 0,1 -1,2 -1,2 -1,1 -1,2 -2,2 -1,0 -2,1 -2,1 -2,0 -3,-1 -3,-1 -1,-1 -2,-2 -2,-2 -1,-1 -2,-3 -3,-4l-4 -8c-1,-2 -3,-4 -4,-6 -1,-1 -2,-2 -3,-3 -2,0 -3,-1 -5,-1zm6 -23l-10 0 0 15 10 0c2,0 4,0 6,0 2,-1 3,-1 4,-3 1,-1 1,-2 1,-4 0,-2 0,-3 -1,-4 -1,-1 -2,-2 -3,-3 -1,0 -4,-1 -7,-1zm32 41l0 -43c0,-2 0,-4 1,-5 1,-1 2,-2 4,-2 1,0 3,1 4,2 1,1 1,3 1,5l0 43c0,2 0,4 -1,5 -1,1 -3,2 -4,2 -2,0 -3,-1 -4,-2 -1,-1 -1,-3 -1,-5zm54 0l-2 -7 -21 0 -2 7c-1,2 -2,4 -3,5 0,1 -1,2 -3,2 -1,0 -2,-1 -3,-2 -1,-1 -2,-2 -2,-3 0,-1 0,-2 0,-3 1,0 1,-2 2,-3l13 -35c0,-1 0,-3 1,-4 1,-1 1,-3 2,-4 0,-1 1,-1 2,-2 1,0 2,-1 4,-1 1,0 2,1 3,1 1,1 2,1 3,2 0,1 1,2 1,3 0,1 1,3 2,5l13 35c1,2 2,4 2,6 0,1 -1,2 -2,3 -1,1 -2,2 -4,2 0,0 -1,0 -2,-1 0,0 -1,-1 -1,-1 0,-1 -1,-1 -1,-3 -1,-1 -1,-2 -2,-2zm-20 -16l15 0 -7 -22 -8 22zm53 -27l20 32 0 -32c0,-3 0,-4 1,-5 1,-1 2,-2 3,-2 2,0 3,1 4,2 1,1 1,2 1,5l0 42c0,5 -2,8 -6,8 0,0 -1,0 -2,-1 -1,0 -2,0 -2,-1 -1,-1 -1,-1 -2,-2 -1,-1 -1,-2 -2,-3l-19 -32 0 32c0,2 -1,4 -1,5 -1,1 -2,2 -4,2 -1,0 -3,-1 -3,-2 -1,-1 -2,-3 -2,-5l0 -42c0,-2 0,-3 1,-4 0,-1 1,-2 2,-3 1,0 2,-1 3,-1 1,0 2,0 3,1 0,0 1,0 1,1 1,1 1,1 2,2 1,1 1,2 2,3zm-483 88l0 19 21 -22c1,-1 2,-2 2,-3 1,0 2,0 3,0 1,0 3,0 4,1 0,1 1,2 1,3 0,2 -1,4 -2,5l-13 13 15 22c1,2 1,3 2,4 0,1 1,2 1,3 0,2 -1,3 -2,4 -1,1 -2,1 -3,1 -2,0 -3,0 -4,-1 -1,-1 -2,-2 -2,-3 -1,-1 -1,-2 -2,-3l-12 -20 -9 9 0 11c0,3 0,4 -1,5 -1,1 -2,2 -4,2 -1,0 -2,0 -2,-1 -1,0 -2,-1 -2,-2 -1,0 -1,-1 -1,-2 0,-1 0,-2 0,-4l0 -41c0,-2 1,-4 1,-5 1,-1 3,-1 4,-1 2,0 3,0 4,1 1,1 1,3 1,5zm76 3l-23 0 0 13 22 0c1,0 2,1 3,2 1,0 1,1 1,3 0,1 0,2 -1,3 -1,0 -2,1 -3,1l-22 0 0 15 24 0c2,0 3,1 4,2 1,0 1,1 1,3 0,1 0,2 -1,3 -1,1 -2,1 -4,1l-28 0c-2,0 -4,0 -5,-2 -1,-1 -1,-2 -1,-5l0 -41c0,-1 0,-3 0,-4 1,-1 2,-1 3,-2 0,0 2,-1 3,-1l27 0c2,0 3,1 4,2 1,0 1,1 1,3 0,1 0,2 -1,3 -1,1 -2,1 -4,1zm53 30c0,3 -1,6 -2,9 -2,2 -4,4 -7,6 -3,1 -7,2 -11,2 -5,0 -9,-1 -12,-3 -3,-2 -5,-3 -6,-6 -2,-2 -2,-5 -2,-7 0,-1 0,-3 1,-3 1,-1 2,-2 3,-2 1,0 2,0 3,1 1,1 1,2 2,4 1,1 1,3 2,4 1,1 2,2 3,3 2,1 3,1 6,1 3,0 5,-1 7,-2 2,-2 3,-4 3,-6 0,-2 0,-3 -1,-5 -2,-1 -3,-2 -4,-2 -2,-1 -4,-1 -7,-2 -4,-1 -7,-2 -9,-3 -3,-1 -5,-3 -6,-5 -2,-2 -2,-5 -2,-8 0,-3 0,-6 2,-8 1,-3 4,-4 7,-6 3,-1 6,-1 10,-1 3,0 6,0 8,1 2,1 4,2 6,3 1,1 2,3 3,4 1,2 1,3 1,5 0,1 0,2 -1,3 -1,1 -2,2 -4,2 -1,0 -2,0 -2,-1 -1,-1 -2,-2 -2,-3 -1,-2 -2,-4 -4,-5 -1,-1 -3,-2 -6,-2 -3,0 -5,1 -6,2 -2,2 -3,3 -3,5 0,1 0,2 1,3 1,0 1,1 2,2 1,0 2,1 3,1 1,0 3,1 5,1 3,1 6,2 8,3 2,1 4,2 6,3 2,1 3,3 4,5 1,2 1,4 1,7zm43 -30l-24 0 0 13 22 0c1,0 3,1 3,2 1,0 2,1 2,3 0,1 -1,2 -2,3 0,0 -1,1 -3,1l-22 0 0 15 25 0c1,0 2,1 3,2 1,0 1,1 1,3 0,1 0,2 -1,3 -1,1 -2,1 -3,1l-29 0c-2,0 -3,0 -4,-2 -1,-1 -2,-2 -2,-5l0 -41c0,-1 0,-3 1,-4 0,-1 1,-1 2,-2 1,0 2,-1 3,-1l28 0c1,0 3,1 3,2 1,0 2,1 2,3 0,1 -1,2 -2,3 0,1 -2,1 -3,1zm24 -3l0 16 22 0 0 -16c0,-2 1,-4 2,-5 1,-1 2,-1 4,-1 1,0 2,0 3,1 1,1 2,3 2,5l0 43c0,3 -1,4 -2,5 -1,1 -2,2 -3,2 -2,0 -3,-1 -4,-2 -1,-1 -2,-3 -2,-5l0 -18 -22 0 0 18c0,3 0,4 -1,5 -1,1 -3,2 -4,2 -2,0 -3,-1 -4,-2 -1,-1 -1,-3 -1,-5l0 -43c0,-2 0,-4 1,-5 1,-1 2,-1 4,-1 1,0 3,0 4,1 1,1 1,3 1,5zm77 43l-3 -7 -21 0 -2 7c-1,3 -2,5 -2,6 -1,1 -2,1 -4,1 -1,0 -2,-1 -3,-2 -1,-1 -2,-2 -2,-3 0,-1 0,-2 1,-2 0,-1 0,-2 1,-4l13 -35c0,-1 1,-2 1,-4 1,-1 1,-2 2,-3 0,-1 1,-2 2,-3 1,0 2,0 4,0 1,0 2,0 3,0 1,1 2,2 3,3 0,1 1,2 1,3 1,1 1,2 2,4l13 35c1,3 2,5 2,6 0,1 -1,2 -2,3 -1,1 -2,2 -3,2 -1,0 -2,0 -2,0 -1,-1 -2,-1 -2,-2 0,0 -1,-1 -1,-2 -1,-1 -1,-2 -1,-3zm-21 -15l15 0 -7 -23 -8 23zm66 -24l-11 0 0 39c0,3 -1,4 -2,5 0,1 -2,2 -3,2 -2,0 -3,-1 -4,-2 -1,-1 -1,-2 -1,-5l0 -39 -12 0c-1,0 -3,-1 -4,-2 -1,0 -1,-2 -1,-3 0,-1 1,-2 1,-3 1,-1 3,-2 4,-2l33 0c2,0 3,1 4,2 1,1 2,2 2,3 0,1 -1,3 -2,3 -1,1 -2,2 -4,2zm40 39l-3 -7 -20 0 -3 7c-1,3 -2,5 -2,6 -1,1 -2,1 -4,1 -1,0 -2,-1 -3,-2 -1,-1 -1,-2 -1,-3 0,-1 0,-2 0,-2 0,-1 0,-2 1,-4l13 -35c0,-1 1,-2 1,-4 1,-1 1,-2 2,-3 1,-1 1,-2 2,-3 1,0 3,0 4,0 1,0 3,0 4,0 1,1 1,2 2,3 1,1 1,2 1,3 1,1 1,2 2,4l13 35c1,3 2,5 2,6 0,1 -1,2 -2,3 -1,1 -2,2 -3,2 -1,0 -2,0 -2,0 -1,-1 -1,-1 -2,-2 0,0 -1,-1 -1,-2 0,-1 -1,-2 -1,-3zm-21 -15l16 0 -8 -23 -8 23zm53 -28l20 32 0 -32c0,-2 0,-4 1,-5 1,-1 2,-1 4,-1 1,0 2,0 3,1 1,1 1,3 1,5l0 43c0,5 -1,7 -5,7 -1,0 -2,0 -3,0 0,-1 -1,-1 -2,-2 0,0 -1,-1 -2,-2 0,-1 -1,-2 -1,-3l-20 -31 0 32c0,2 0,3 -1,4 -1,1 -2,2 -4,2 -1,0 -2,-1 -3,-2 -1,-1 -1,-2 -1,-4l0 -42c0,-2 0,-4 0,-5 1,-1 1,-2 2,-2 1,-1 3,-1 4,-1 1,0 1,0 2,0 1,0 1,1 2,1 0,1 1,2 1,2 1,1 1,2 2,3zm-386 114l-4 0 0 18c0,2 0,4 -1,5 -1,1 -2,1 -4,1 -2,0 -3,0 -4,-1 -1,-2 -1,-3 -1,-5l0 -42c0,-3 0,-5 1,-6 1,-1 3,-1 5,-1l17 0c2,0 4,0 6,0 2,0 3,1 5,1 1,1 3,2 4,3 1,2 2,3 3,5 0,2 1,4 1,6 0,4 -2,7 -4,10 -2,2 -5,4 -9,5 1,1 3,2 5,4 1,2 3,5 4,7 2,2 3,4 3,6 1,2 1,3 1,4 0,1 0,1 0,2 -1,1 -1,1 -2,2 -1,0 -2,0 -3,0 -1,0 -2,0 -2,-1 -1,0 -2,-1 -3,-2 0,-1 -1,-2 -2,-4l-4 -7c-1,-3 -3,-5 -4,-6 -1,-2 -2,-3 -4,-3 -1,-1 -2,-1 -4,-1zm6 -23l-10 0 0 15 10 0c2,0 4,0 6,-1 1,0 3,-1 4,-2 1,-1 1,-3 1,-5 0,-1 0,-2 -1,-4 -1,-1 -2,-2 -3,-2 -1,-1 -4,-1 -7,-1zm65 0l-23 0 0 14 21 0c2,0 3,0 4,1 0,1 1,2 1,3 0,1 -1,2 -1,3 -1,1 -2,1 -4,1l-21 0 0 16 24 0c1,0 3,0 3,1 1,1 2,2 2,3 0,1 -1,2 -2,3 0,1 -2,1 -3,1l-28 0c-3,0 -4,0 -5,-1 -1,-1 -2,-3 -2,-5l0 -41c0,-2 1,-3 1,-4 0,-1 1,-2 2,-3 1,0 2,0 4,0l27 0c2,0 3,0 4,1 0,1 1,2 1,3 0,1 -1,2 -1,3 -1,1 -2,1 -4,1zm34 25l-10 0 0 16c0,2 0,3 -1,5 -1,1 -2,1 -4,1 -1,0 -3,0 -4,-1 -1,-2 -1,-3 -1,-5l0 -42c0,-3 0,-5 2,-6 1,-1 2,-1 4,-1l14 0c4,0 7,0 9,1 2,0 4,1 5,3 2,1 3,3 4,5 1,2 1,5 1,7 0,6 -2,10 -5,13 -3,3 -8,4 -14,4zm-3 -25l-7 0 0 17 7 0c3,0 5,0 6,-1 2,-1 3,-1 4,-3 1,-1 1,-3 1,-5 0,-2 0,-4 -2,-5 -1,-2 -4,-3 -9,-3zm31 24l0 -26c0,-3 0,-4 1,-5 1,-2 2,-2 4,-2 1,0 3,0 4,2 1,1 1,2 1,5l0 26c0,3 0,6 1,8 1,2 2,4 3,5 2,1 4,2 7,2 4,0 7,-2 9,-4 1,-2 2,-6 2,-10l0 -27c0,-3 1,-4 2,-6 1,-1 2,-1 3,-1 2,0 3,0 4,1 1,2 2,3 2,6l0 26c0,4 -1,8 -2,10 0,3 -2,6 -4,8 -2,2 -4,3 -6,4 -3,1 -6,1 -9,1 -4,0 -7,0 -10,-1 -3,-1 -5,-2 -7,-4 -2,-2 -3,-5 -4,-8 -1,-3 -1,-6 -1,-10z"/>
    <path class="fil2" d="M745 311l-16 0c-2,0 -4,0 -5,-1 -1,-1 -1,-3 -1,-5l0 -41c0,-3 0,-5 1,-6 1,-1 3,-1 5,-1l17 0c2,0 4,0 6,0 2,1 3,1 5,2 1,1 2,2 3,3 1,1 2,3 2,4 1,1 1,3 1,4 0,6 -3,10 -8,12 7,3 10,7 10,14 0,3 -1,6 -2,8 -1,3 -3,4 -6,5 -1,1 -3,2 -5,2 -2,0 -5,0 -7,0zm-1 -24l-11 0 0 16 11 0c7,0 11,-3 11,-8 0,-3 -1,-5 -3,-6 -2,-1 -5,-2 -8,-2zm-11 -22l0 14 10 0c2,0 4,0 6,-1 1,0 2,-1 3,-3 0,-1 1,-2 1,-3 0,-3 -1,-5 -3,-6 -2,0 -5,-1 -8,-1l-9 0zm51 -2l0 39 21 0c2,0 3,1 4,2 1,0 1,2 1,3 0,1 0,2 -1,3 -1,1 -2,1 -4,1l-25 0c-2,0 -4,0 -5,-1 -1,-1 -1,-3 -1,-5l0 -42c0,-3 0,-4 1,-5 1,-2 3,-2 4,-2 2,0 3,0 4,1 1,2 1,3 1,6zm34 43l0 -43c0,-3 0,-4 1,-5 1,-2 2,-2 4,-2 1,0 3,0 4,1 1,2 1,3 1,6l0 43c0,2 0,4 -1,5 -1,1 -3,1 -4,1 -2,0 -3,0 -4,-1 -1,-2 -1,-3 -1,-5zm32 -43l0 19 20 -23c1,-1 2,-2 3,-2 1,-1 1,-1 3,-1 1,0 2,0 3,1 1,1 2,2 2,4 0,1 -1,3 -3,4l-12 13 14 22c1,2 2,3 2,4 1,2 1,3 1,4 0,1 0,2 -1,3 -1,1 -2,1 -4,1 -1,0 -2,0 -3,-1 -1,0 -2,-1 -3,-2 0,-1 -1,-2 -1,-3l-12 -20 -9 8 0 12c0,2 0,4 -1,5 -1,1 -3,1 -4,1 -1,0 -2,0 -3,0 -1,-1 -1,-2 -2,-2 0,-1 0,-2 0,-3 0,-1 0,-2 0,-4l0 -40c0,-3 0,-4 1,-5 1,-2 2,-2 4,-2 1,0 3,0 4,1 1,2 1,3 1,6zm-328 131l0 -43c0,-2 1,-4 2,-5 1,-1 2,-2 4,-2 1,0 2,1 3,2 1,1 2,3 2,5l0 43c0,2 -1,4 -2,5 -1,1 -2,2 -3,2 -2,0 -3,-1 -4,-2 -1,-1 -2,-3 -2,-5zm36 -43l20 32 0 -33c0,-2 0,-3 1,-4 1,-1 2,-2 3,-2 2,0 3,1 4,2 1,1 1,2 1,4l0 43c0,5 -2,8 -5,8 -1,0 -2,-1 -3,-1 -1,0 -1,-1 -2,-1 -1,-1 -1,-2 -2,-2 0,-1 -1,-2 -1,-3l-20 -32 0 32c0,2 0,4 -1,5 -1,1 -2,2 -4,2 -1,0 -2,-1 -3,-2 -1,-1 -2,-3 -2,-5l0 -42c0,-2 1,-3 1,-4 0,-1 1,-2 2,-3 1,0 2,-1 4,-1 0,0 1,0 2,1 1,0 1,0 2,1 0,0 1,1 1,2 1,1 1,2 2,3zm47 -6l13 0c4,0 7,0 10,1 2,1 4,2 6,4 6,5 8,12 8,22 0,4 0,7 0,9 -1,3 -2,5 -3,8 -1,2 -2,4 -4,5 -2,2 -3,3 -5,4 -1,0 -3,1 -5,1 -2,1 -4,1 -6,1l-14 0c-2,0 -3,-1 -4,-1 -1,-1 -2,-2 -2,-3 0,-1 0,-2 0,-4l0 -40c0,-3 0,-4 1,-5 1,-1 3,-2 5,-2zm4 9l0 37 8 0c2,0 3,0 4,0 1,0 2,-1 3,-1 1,0 2,-1 3,-2 3,-3 5,-8 5,-16 0,-5 -1,-9 -2,-12 -2,-3 -4,-4 -6,-5 -2,-1 -5,-1 -8,-1l-7 0zm65 -10c5,0 10,1 14,4 3,2 6,5 8,9 2,5 3,10 3,15 0,5 0,8 -1,12 -2,3 -3,6 -5,9 -2,2 -5,4 -8,6 -3,1 -7,2 -11,2 -4,0 -7,-1 -11,-2 -3,-2 -5,-4 -8,-6 -2,-3 -3,-6 -4,-9 -1,-4 -2,-8 -2,-12 0,-4 1,-8 2,-11 1,-4 3,-7 5,-9 2,-3 4,-5 7,-6 4,-1 7,-2 11,-2zm15 28c0,-4 -1,-7 -2,-10 -1,-3 -3,-5 -5,-7 -3,-1 -5,-2 -8,-2 -2,0 -4,0 -6,1 -2,1 -3,2 -4,4 -2,1 -3,3 -3,6 -1,2 -1,5 -1,8 0,3 0,6 1,9 0,2 1,4 3,6 1,2 3,3 4,4 2,0 4,1 6,1 3,0 5,-1 7,-2 3,-2 4,-4 6,-7 1,-3 2,-6 2,-11zm32 -21l20 32 0 -33c0,-2 1,-3 2,-4 0,-1 2,-2 3,-2 2,0 3,1 4,2 0,1 1,2 1,4l0 43c0,5 -2,8 -6,8 -1,0 -1,-1 -2,-1 -1,0 -2,-1 -2,-1 -1,-1 -2,-2 -2,-2 -1,-1 -1,-2 -2,-3l-19 -32 0 32c0,2 -1,4 -2,5 0,1 -2,2 -3,2 -1,0 -3,-1 -4,-2 0,-1 -1,-3 -1,-5l0 -42c0,-2 0,-3 1,-4 0,-1 1,-2 2,-3 1,0 2,-1 3,-1 1,0 2,0 3,1 0,0 1,0 1,1 1,0 1,1 2,2 0,1 1,2 1,3zm75 3l-23 0 0 13 21 0c2,0 3,0 4,1 0,1 1,2 1,3 0,1 -1,2 -1,3 -1,1 -2,1 -4,1l-21 0 0 16 24 0c1,0 3,0 3,1 1,1 2,2 2,3 0,2 -1,3 -2,3 0,1 -2,2 -3,2l-28 0c-3,0 -4,-1 -5,-2 -1,-1 -2,-3 -2,-5l0 -41c0,-2 0,-3 1,-4 0,-1 1,-2 2,-2 1,-1 2,-1 4,-1l27 0c2,0 3,0 4,1 0,1 1,2 1,3 0,2 -1,3 -1,3 -1,1 -2,2 -4,2zm53 29c0,4 -1,7 -3,9 -1,3 -4,5 -7,6 -3,2 -6,3 -11,3 -5,0 -9,-1 -12,-3 -2,-2 -4,-4 -6,-6 -1,-3 -2,-5 -2,-7 0,-2 1,-3 1,-4 1,-1 2,-1 4,-1 1,0 2,0 2,1 1,1 2,2 2,3 1,2 2,3 3,4 0,2 1,3 3,3 1,1 3,2 5,2 3,0 6,-1 8,-3 2,-1 2,-3 2,-5 0,-2 0,-4 -1,-5 -1,-1 -2,-2 -4,-2 -2,-1 -4,-2 -7,-2 -3,-1 -6,-2 -9,-4 -2,-1 -4,-3 -6,-5 -1,-2 -2,-4 -2,-8 0,-3 1,-5 2,-8 2,-2 4,-4 7,-5 3,-1 6,-2 10,-2 3,0 6,1 8,1 3,1 5,2 6,4 2,1 3,3 3,4 1,2 1,3 1,4 0,2 0,3 -1,4 -1,1 -2,2 -3,2 -1,0 -2,-1 -3,-1 0,-1 -1,-2 -2,-3 -1,-2 -2,-4 -3,-5 -1,-1 -4,-2 -6,-2 -3,0 -5,1 -7,2 -2,1 -2,3 -2,4 0,2 0,2 0,3 1,1 2,2 3,2 1,1 2,1 3,2 1,0 2,0 5,1 3,1 5,2 8,2 2,1 4,2 5,4 2,1 3,2 4,4 1,2 2,5 2,7zm9 11l0 -43c0,-2 0,-4 1,-5 1,-1 3,-2 4,-2 2,0 3,1 4,2 1,1 1,3 1,5l0 43c0,2 0,4 -1,5 -1,1 -2,2 -4,2 -1,0 -3,-1 -4,-2 -1,-1 -1,-3 -1,-5zm55 0l-3 -7 -21 0 -2 7c-1,2 -2,4 -3,5 0,1 -1,2 -3,2 -1,0 -2,-1 -3,-2 -1,-1 -2,-2 -2,-3 0,-1 0,-2 1,-3 0,0 0,-2 1,-3l13 -35c0,-1 1,-3 1,-4 1,-2 1,-3 2,-4 0,-1 1,-1 2,-2 1,-1 2,-1 4,-1 1,0 2,0 3,1 1,1 2,1 3,2 0,1 1,2 1,3 1,1 1,3 2,4l13 36c1,2 2,4 2,6 0,1 -1,2 -2,3 -1,1 -2,2 -3,2 -1,0 -2,-1 -3,-1 0,0 -1,-1 -1,-1 0,-1 -1,-1 -1,-3 -1,-1 -1,-2 -1,-2zm-21 -16l15 0 -7 -22 -8 22z"/>
   </g>
  </g>
 </g>
</svg>
