<?xml version="1.0" standalone="no"?>
<!DOCTYPE svg PUBLIC "-//W3C//DTD SVG 20010904//EN"
 "http://www.w3.org/TR/2001/REC-SVG-20010904/DTD/svg10.dtd">
<svg version="1.0" xmlns="http://www.w3.org/2000/svg"
 width="352.000000pt" height="1446.000000pt" viewBox="0 0 352.000000 1446.000000"
 preserveAspectRatio="xMidYMid meet">

<g transform="translate(0.000000,1446.000000) scale(0.100000,-0.100000)"
fill="#000000" stroke="none">
<path d="M1640 14444 c-92 -20 -156 -42 -225 -77 -251 -124 -425 -368 -464
-647 -6 -43 15 -1356 59 -3825 38 -2068 74 -4066 81 -4440 l12 -680 -21 -41
c-31 -61 -106 -138 -302 -314 -300 -269 -425 -419 -543 -655 -127 -255 -175
-526 -162 -925 23 -753 112 -1282 291 -1735 240 -606 615 -965 1125 -1079 103
-23 139 -26 304 -26 165 0 201 3 304 26 828 185 1299 1017 1401 2474 38 540
19 805 -74 1085 -100 297 -254 507 -606 825 -208 188 -289 271 -313 323 -14
28 -17 65 -17 180 0 154 146 8244 153 8532 3 94 1 211 -5 260 -37 344 -292
637 -633 726 -104 28 -275 34 -365 13z m321 -491 c80 -40 150 -111 187 -191
22 -48 27 -74 30 -162 2 -58 -10 -861 -27 -1785 -109 -5880 -129 -7053 -120
-7110 19 -116 81 -237 186 -360 33 -40 144 -146 245 -237 100 -91 215 -199
255 -241 178 -188 278 -387 319 -635 13 -80 15 -150 11 -392 -8 -415 -37 -703
-102 -1026 -152 -749 -447 -1192 -880 -1319 -128 -38 -329 -45 -465 -17 -257
53 -461 200 -626 452 -277 423 -433 1143 -434 2000 0 325 25 456 127 653 86
166 170 261 468 531 306 278 400 415 425 620 4 33 1 385 -6 781 -80 4265 -145
7919 -142 8045 3 147 5 158 32 210 75 146 200 221 361 217 79 -2 99 -6 156
-34z"/>
<path d="M1718 13806 c-53 -19 -83 -40 -111 -78 -115 -156 -10 -368 183 -368
97 0 171 47 211 135 35 76 15 190 -44 253 -54 58 -167 86 -239 58z"/>
<path d="M2062 3936 c-63 -21 -107 -59 -138 -121 -23 -48 -26 -64 -21 -115 7
-83 35 -125 144 -221 53 -46 113 -105 136 -131 104 -123 272 -132 369 -19 65
76 74 180 24 266 -31 52 -271 285 -328 319 -54 31 -129 40 -186 22z"/>
<path d="M2435 2894 c-54 -29 -104 -86 -119 -133 -8 -25 -19 -118 -26 -206
-38 -522 -147 -986 -281 -1195 -20 -30 -56 -79 -81 -108 -72 -84 -86 -167 -44
-258 50 -107 161 -156 280 -123 52 14 143 102 208 199 155 232 272 591 337
1041 27 182 51 444 51 548 0 75 -4 93 -28 136 -15 28 -45 62 -70 80 -38 26
-53 30 -120 33 -56 2 -85 -2 -107 -14z"/>
</g>
</svg>
